<svg width="232" height="127" viewBox="0 0 232 127" fill="none" xmlns="http://www.w3.org/2000/svg">
<path d="M224.318 44.6224C226.849 44.7705 227.093 46.9114 227.818 48.4373C230.778 54.5914 228.431 60.2102 225.507 65.5752C218.043 78.2914 206.653 88.2413 193.049 93.9294C188.051 95.8413 183.111 97.9673 177.982 99.3934C172.575 100.796 167.099 101.92 161.577 102.76C157.66 103.453 153.704 103.904 149.731 104.112C144.011 104.371 138.269 104.371 132.537 104.291C128.726 104.243 124.926 103.879 121.117 103.632C111.722 102.901 102.425 101.213 93.372 98.5961C85.3826 96.3827 77.6306 93.3874 70.2286 89.6537C65.8283 87.4657 61.5344 85.057 57.3379 82.5437C50.9563 78.7131 44.9953 74.2219 39.5532 69.1443C34.6873 64.6359 30.1322 59.7727 26.8815 53.8871C25.7518 51.9333 24.7987 49.8825 24.0335 47.7593C22.6867 43.8036 26.053 40.7808 29.5331 40.5691C31.1039 40.5655 32.6723 40.69 34.2228 40.9415C35.7163 41.0917 36.2815 42.1342 35.6751 43.284C33.8978 46.6706 36.3289 48.7969 37.8942 51.0842C41.3795 55.9917 45.397 60.4986 49.8734 64.5227C51.2566 65.8577 52.7291 67.097 54.2807 68.232C58.0106 70.8724 61.8354 73.3804 65.5927 75.9817C72.0067 80.4074 79.1127 83.5124 86.2015 86.6133C94.4537 90.2237 103.171 92.551 111.969 94.5699C132.956 99.119 154.735 98.4951 175.427 92.7521C183.985 90.4319 192.203 87.0003 199.869 82.5449C207.125 78.2235 213.578 72.8674 218.258 65.7579C220.352 62.6378 221.993 59.236 223.131 55.6544C224.053 52.6133 223.847 49.2255 224.142 45.9916C224.176 45.5356 224.251 45.0983 224.318 44.6224Z" fill="#FF5051"/>
<path d="M61.1279 45.16C46.5757 42.1985 33.3445 34.68 23.3519 23.6944C22.8468 25.4594 22.4303 26.9632 21.9879 28.4609C19.7441 36.1238 17.4993 43.7137 15.2702 51.3528C14.0636 55.5648 14.7364 59.8719 14.7899 64.143C14.8547 66.5152 14.7988 68.8892 14.6225 71.2557C14.5408 72.1465 14.0299 73.5098 13.3488 73.8141C11.6855 74.5431 9.8839 74.7755 8.33016 73.1371C5.41253 70.0594 4.38396 66.2603 4.05068 62.2511C3.63461 57.2763 4.95348 52.5083 6.41747 47.8199C8.68987 40.5003 10.9988 33.1802 13.3813 25.8956C14.6764 22.0046 13.9104 18.0942 13.8988 14.1879C13.8856 10.909 14.8456 8.2134 18.152 6.84172C19.2128 6.37781 20.41 6.33368 21.502 6.71825C22.5941 7.10282 23.4995 7.88742 24.0354 8.91363C24.7747 10.1062 25.3437 11.4044 26.1383 12.5554C28.4738 15.9423 30.682 19.445 33.3106 22.5914C37.8401 27.8781 43.0841 32.5079 48.8915 36.3472C51.3872 38.0429 54.2134 39.261 56.7872 40.8567C58.4937 41.9214 60.0133 43.2789 61.619 44.5018L61.1279 45.16Z" fill="#FF5051"/>
</svg>
